{"title":"A.Good.Day.To.Die.Hard.2013.CAM.READNFO.XViD-26k","uid":8183098,"size":1471114972,"categoryP":"video","categoryS":"movies","magnet":"?xt=urn:btih:a5498ce9c527f8a8f3e303cab2b4dac71ee62bc1&amp;dn=A.Good.Day.To.Die.Hard.2013.CAM.READNFO.XViD-26k&amp;tr=udp%3A%2F%2Ftracker.openbittorrent.com%3A80&amp;tr=udp%3A%2F%2Fopen.demonii.com%3A1337&amp;tr=udp%3A%2F%2Ftracker.coppersurfer.tk%3A6969&amp;tr=udp%3A%2F%2Fexodus.desync.com%3A6969","seeders":1,"leechers":0,"uploader":"Robblowe","files":-1,"time":1361667262,"description":"Release Name: A.Good.Day.To.Die.Hard.2013.CAM.READNFO.XViD-26k\nSize: 1.37 GB\nVideo: AVI | 720Ã—340 | 2 013 Kbps\nAudio: English | MP3 | 128 kbps\nRuntime: 1h 31mn\n\nSubtitles: HARD CODED English subs when needed\n\n\nVideo\n ID : 0\n Format : MPEG-4 Visual\n Format profile : Advanced Simple@L5\n Format settings, BVOP : 2\n Format settings, QPel : Yes\n Format settings, GMC : No warppoints\n Format settings, Matrix : Default (H.263)\n Muxing mode : Packed bitstream\n Codec ID : XVID\n Codec ID/Hint : XviD\n Duration : 1h 31mn\n Bit rate : 2 013 Kbps\n Width : 720 pixels\n Height : 340 pixels\n Display aspect ratio : 2.118\n Frame rate : 25.000 fps\n Color space : YUV\n Chroma subsampling : 4:2:0\n Bit depth : 8 bits\n Scan type : Progressive\n Compression mode : Lossy\n Bits/(Pixel*Frame) : 0.329\n Stream size : 1.28 GiB (94%)\n Writing library : XviD 64\n\n Audio\n ID : 1\n Format : MPEG Audio\n Format version : Version 1\n Format profile : Layer 3\n Mode : Joint stereo\n Mode extension : MS Stereo\n Codec ID : 55\n Codec ID/Hint : MP3 \n Duration : 1h 31mn\n Bit rate mode : Constant\n Bit rate : 128 Kbps\n Channel(s) : 2 channels\n Sampling rate : 44.1 KHz\n Compression mode : Lossy\n Delay relative to video : 2ms\n Stream size : 83.5 MiB (6%)\n Alignment : Split accross interleaves\n Interleave, duration : 40 ms (1.00 video frame)\n Interleave, preload duration : 500 ms \n\n &lt;a href=&quot;\nhttp://www.dodaj.rs/f/26/nK/1C5HyNhK/vlcsnap-2013-02-20-20h55.png&quot; rel=&quot;nofollow&quot; target=&quot;_NEW&quot;&gt;\nhttp://www.dodaj.rs/f/26/nK/1C5HyNhK/vlcsnap-2013-02-20-20h55.png&lt;/a&gt;\n\n\n\n","torrent":{"xt":"urn:btih:a5498ce9c527f8a8f3e303cab2b4dac71ee62bc1","amp;dn":"A.Good.Day.To.Die.Hard.2013.CAM.READNFO.XViD-26k","amp;tr":["udp%3A%2F%2Ftracker.openbittorrent.com%3A80","udp%3A%2F%2Fopen.demonii.com%3A1337","udp%3A%2F%2Ftracker.coppersurfer.tk%3A6969","udp%3A%2F%2Fexodus.desync.com%3A6969"],"infoHash":"a5498ce9c527f8a8f3e303cab2b4dac71ee62bc1","infoHashBuffer":{"type":"Buffer","data":[165,73,140,233,197,39,248,168,243,227,3,202,178,180,218,199,30,230,43,193]},"announce":[],"urlList":[]}}